{"title":"Anneliese.The.Exorcist.Tapes.[2011].DvdRip.XviD-Kna","uid":6773533,"size":1174829056,"categoryP":"video","categoryS":"movies","magnet":"?xt=urn:btih:fe0edde7cdd934c410b201108f918d6711542ff3&amp;dn=Anneliese.The.Exorcist.Tapes.%5B2011%5D.DvdRip.XviD-Kna&amp;tr=udp%3A%2F%2Ftracker.openbittorrent.com%3A80&amp;tr=udp%3A%2F%2Fopen.demonii.com%3A1337&amp;tr=udp%3A%2F%2Ftracker.coppersurfer.tk%3A6969&amp;tr=udp%3A%2F%2Fexodus.desync.com%3A6969","seeders":0,"leechers":1,"uploader":"Jon.Pson","files":-1,"time":1319652500,"description":"Documentary covering the famous 'demonic possession' case of Anneliese Michel. The film features authentic footage of 'exorcisms' and other shocking events.\n\nThey speak german in certain parts of the movie. I haven't found any subtitles for it yet. If you can find any that fits this release please make a comment. Thanks. \n &lt;a href=&quot;\nhttp://en.wikipedia.org/wiki/Anneliese:_The_Exorcist_Tapes&quot; rel=&quot;nofollow&quot; target=&quot;_NEW&quot;&gt;\nhttp://en.wikipedia.org/wiki/Anneliese:_The_Exorcist_Tapes&lt;/a&gt;\n\nGeneral\nComplete name                    : Anneliese.The.Exorcist.Tapes.[2011].DvdRip.XviD-KnÃƒÂ£\\Anneliese.The.Exorcist.Tapes.[2011].DvdRip.XviD-KnÃƒÂ£.avi\nFormat                           : AVI\nFormat/Info                      : Audio Video Interleave\nFile size                        : 1.09 GiB\nDuration                         : 1h 27mn\nOverall bit rate                 : 1 781 Kbps\nWriting application              : VirtualDubMod 1.5.4.1 (build 2178/release)\nWriting library                  : VirtualDubMod build 2178/release\n\nVideo\nID                               : 0\nFormat                           : MPEG-4 Visual\nFormat profile                   : Advanced Simple@L5\nFormat settings, BVOP            : 1\nFormat settings, QPel            : No\nFormat settings, GMC             : No warppoints\nFormat settings, Matrix          : Custom\nCodec ID                         : XVID\nCodec ID/Hint                    : XviD\nDuration                         : 1h 27mn\nBit rate                         : 1 550 Kbps\nWidth                            : 720 pixels\nHeight                           : 528 pixels\nDisplay aspect ratio             : 4:3\nFrame rate                       : 25.000 fps\nColor space                      : YUV\nChroma subsampling               : 4:2:0\nBit depth                        : 8 bits\nScan type                        : Progressive\nCompression mode                 : Lossy\nBits/(Pixel*Frame)               : 0.163\nStream size                      : 975 MiB (87%)\nWriting library                  : XviD 1.2.1 (UTC 2008-12-04)\n\nAudio\nID                               : 1\nFormat                           : AC-3\nFormat/Info                      : Audio Coding 3\nMode extension                   : CM (complete main)\nCodec ID                         : 2000\nDuration                         : 1h 27mn\nBit rate mode                    : Constant\nBit rate                         : 224 Kbps\nChannel(s)                       : 2 channels\nChannel positions                : Front: L R\nSampling rate                    : 48.0 KHz\nBit depth                        : 16 bits\nCompression mode                 : Lossy\nStream size                      : 141 MiB (13%)\nAlignment                        : Split accross interleaves\nInterleave, duration             : 96 ms (2.40 video frames)\nInterleave, preload duration     : 96 ms\nLanguage                         : English\n\n","torrent":{"xt":"urn:btih:fe0edde7cdd934c410b201108f918d6711542ff3","amp;dn":"Anneliese.The.Exorcist.Tapes.%5B2011%5D.DvdRip.XviD-Kna","amp;tr":["udp%3A%2F%2Ftracker.openbittorrent.com%3A80","udp%3A%2F%2Fopen.demonii.com%3A1337","udp%3A%2F%2Ftracker.coppersurfer.tk%3A6969","udp%3A%2F%2Fexodus.desync.com%3A6969"],"infoHash":"fe0edde7cdd934c410b201108f918d6711542ff3","infoHashBuffer":{"type":"Buffer","data":[254,14,221,231,205,217,52,196,16,178,1,16,143,145,141,103,17,84,47,243]},"announce":[],"urlList":[]}}